<?xml version="1.0" encoding="UTF-8" standalone="no"?>
<svg
   xmlns:dc="http://purl.org/dc/elements/1.1/"
   xmlns:cc="http://creativecommons.org/ns#"
   xmlns:rdf="http://www.w3.org/1999/02/22-rdf-syntax-ns#"
   xmlns:svg="http://www.w3.org/2000/svg"
   xmlns="http://www.w3.org/2000/svg"
   viewBox="0 0 944.88135 418.452"
   height="418.452"
   width="944.88135"
   xml:space="preserve"
   id="svg2"
   version="1.1"><metadata
     id="metadata8"><rdf:RDF><cc:Work
         rdf:about=""><dc:format>image/svg+xml</dc:format><dc:type
           rdf:resource="http://purl.org/dc/dcmitype/StillImage" /></cc:Work></rdf:RDF></metadata><defs
     id="defs6"><clipPath
       id="clipPath18"
       clipPathUnits="userSpaceOnUse"><path
         id="path16"
         d="M 0,313.839 H 708.661 V 0 H 0 Z" /></clipPath></defs><g
     transform="matrix(1.3333333,0,0,-1.3333333,0,418.452)"
     id="g10"><g
       id="g12"><g
         clip-path="url(#clipPath18)"
         id="g14"><g
           transform="translate(318.4729,63.7112)"
           id="g20"><path
             id="path22"
             style="fill:#1d2a3a;fill-opacity:1;fill-rule:nonzero;stroke:none"
             d="M 0,0 C 0,0.234 0.116,0.352 0.352,0.352 H 4.811 C 5.045,0.352 5.163,0.234 5.163,0 v -23.176 c 0,-0.233 -0.118,-0.351 -0.352,-0.351 H 0.352 C 0.116,-23.527 0,-23.409 0,-23.176 Z" /></g><g
           transform="translate(330.3065,63.7112)"
           id="g24"><path
             id="path26"
             style="fill:#1d2a3a;fill-opacity:1;fill-rule:nonzero;stroke:none"
             d="M 0,0 C 0,0.234 0.116,0.352 0.352,0.352 H 4.563 C 4.821,0.352 5.02,0.234 5.163,0 l 8.425,-15.028 h 0.177 V 0 c 0,0.234 0.115,0.352 0.349,0.352 h 3.968 c 0.236,0 0.351,-0.118 0.351,-0.352 v -23.176 c 0,-0.233 -0.115,-0.351 -0.351,-0.351 h -4.177 c -0.258,0 -0.455,0.118 -0.598,0.351 L 4.846,-8.182 H 4.668 v -14.994 c 0,-0.233 -0.115,-0.351 -0.349,-0.351 H 0.352 C 0.116,-23.527 0,-23.409 0,-23.176 Z" /></g><g
           transform="translate(360.679,40.1846)"
           id="g28"><path
             id="path30"
             style="fill:#1d2a3a;fill-opacity:1;fill-rule:nonzero;stroke:none"
             d="m 0,0 c -0.236,0 -0.354,0.116 -0.354,0.352 v 18.715 c 0,0.141 -0.069,0.212 -0.209,0.212 h -6.04 c -0.234,0 -0.349,0.115 -0.349,0.347 v 3.869 c 0,0.231 0.115,0.347 0.349,0.347 H 11.06 c 0.234,0 0.352,-0.116 0.352,-0.347 v -3.869 c 0,-0.232 -0.118,-0.347 -0.352,-0.347 H 5.02 c -0.14,0 -0.211,-0.071 -0.211,-0.212 V 0.352 C 4.809,0.116 4.693,0 4.457,0 Z" /></g><g
           transform="translate(377.0789,63.7112)"
           id="g32"><path
             id="path34"
             style="fill:#1d2a3a;fill-opacity:1;fill-rule:nonzero;stroke:none"
             d="M 0,0 C 0,0.234 0.116,0.352 0.352,0.352 H 15.66 c 0.234,0 0.352,-0.118 0.352,-0.352 v -3.756 c 0,-0.236 -0.118,-0.352 -0.352,-0.352 H 5.374 c -0.143,0 -0.211,-0.071 -0.211,-0.211 v -4.74 c 0,-0.14 0.068,-0.212 0.211,-0.212 h 8.565 c 0.236,0 0.352,-0.115 0.352,-0.351 v -3.722 c 0,-0.234 -0.116,-0.349 -0.352,-0.349 H 5.374 c -0.143,0 -0.211,-0.072 -0.211,-0.212 v -4.951 c 0,-0.14 0.068,-0.212 0.211,-0.212 H 15.66 c 0.234,0 0.352,-0.118 0.352,-0.349 v -3.759 c 0,-0.233 -0.118,-0.351 -0.352,-0.351 H 0.352 C 0.116,-23.527 0,-23.409 0,-23.176 Z" /></g><g
           transform="translate(408.6108,53.6688)"
           id="g36"><path
             id="path38"
             style="fill:#1d2a3a;fill-opacity:1;fill-rule:nonzero;stroke:none"
             d="M 0,0 C 0.981,0 1.768,0.268 2.353,0.809 2.935,1.345 3.228,2.072 3.228,2.985 3.228,3.874 2.935,4.587 2.353,5.126 1.768,5.664 0.981,5.935 0,5.935 h -4.214 c -0.14,0 -0.211,-0.072 -0.211,-0.212 V 0.209 C -4.425,0.069 -4.354,0 -4.214,0 Z m 3.616,-13.484 c -0.258,0 -0.432,0.118 -0.526,0.351 l -4.108,8.742 h -3.196 c -0.14,0 -0.211,-0.069 -0.211,-0.209 v -8.533 c 0,-0.233 -0.118,-0.351 -0.349,-0.351 h -4.462 c -0.236,0 -0.349,0.118 -0.349,0.351 v 23.176 c 0,0.233 0.113,0.351 0.349,0.351 H 0.28 c 1.217,0 2.323,-0.182 3.319,-0.546 C 4.592,9.487 5.448,8.978 6.163,8.322 6.876,7.668 7.427,6.881 7.813,5.969 8.199,5.057 8.391,4.061 8.391,2.985 8.391,1.438 8.017,0.093 7.267,-1.055 6.517,-2.2 5.477,-3.068 4.145,-3.651 l 4.703,-9.411 c 0.047,-0.118 0.047,-0.218 0,-0.3 -0.047,-0.081 -0.128,-0.122 -0.246,-0.122 z" /></g><g
           transform="translate(423.0422,63.7112)"
           id="g40"><path
             id="path42"
             style="fill:#1d2a3a;fill-opacity:1;fill-rule:nonzero;stroke:none"
             d="M 0,0 C 0,0.234 0.116,0.352 0.352,0.352 H 4.811 C 5.045,0.352 5.163,0.234 5.163,0 v -23.176 c 0,-0.233 -0.118,-0.351 -0.352,-0.351 H 0.352 C 0.116,-23.527 0,-23.409 0,-23.176 Z" /></g><g
           transform="translate(443.6194,44.3632)"
           id="g44"><path
             id="path46"
             style="fill:#1d2a3a;fill-opacity:1;fill-rule:nonzero;stroke:none"
             d="m 0,0 c 0.981,0 1.792,0.234 2.422,0.703 0.631,0.467 1.076,1.111 1.334,1.93 0.072,0.211 0.128,0.45 0.177,0.72 0.045,0.271 0.087,0.598 0.121,0.984 0.037,0.386 0.059,0.86 0.071,1.421 0.013,0.563 0.02,1.229 0.02,2.003 0,0.772 -0.007,1.438 -0.02,2.001 -0.012,0.561 -0.034,1.035 -0.071,1.421 -0.034,0.389 -0.076,0.716 -0.121,0.984 -0.049,0.27 -0.105,0.509 -0.177,0.72 C 3.498,13.706 3.053,14.35 2.422,14.819 1.792,15.286 0.981,15.52 0,15.52 c -0.983,0 -1.792,-0.234 -2.424,-0.701 -0.632,-0.469 -1.077,-1.113 -1.333,-1.932 -0.073,-0.211 -0.13,-0.45 -0.176,-0.72 C -3.98,11.899 -4.022,11.572 -4.056,11.183 -4.091,10.797 -4.115,10.323 -4.128,9.762 -4.14,9.199 -4.145,8.533 -4.145,7.761 -4.145,6.987 -4.14,6.321 -4.128,5.758 -4.115,5.197 -4.091,4.723 -4.056,4.337 -4.022,3.951 -3.98,3.624 -3.933,3.353 -3.887,3.083 -3.83,2.844 -3.757,2.633 -3.501,1.814 -3.056,1.17 -2.424,0.703 -1.792,0.234 -0.983,0 0,0 m 0,-4.565 c -2.085,0 -3.904,0.479 -5.463,1.44 -1.553,0.959 -2.637,2.41 -3.247,4.354 -0.14,0.421 -0.253,0.831 -0.335,1.229 -0.081,0.399 -0.145,0.844 -0.191,1.333 -0.047,0.494 -0.081,1.055 -0.106,1.686 -0.025,0.632 -0.034,1.392 -0.034,2.284 0,0.89 0.009,1.65 0.034,2.282 0.025,0.631 0.059,1.194 0.106,1.686 0.046,0.492 0.11,0.934 0.191,1.333 0.082,0.398 0.195,0.808 0.335,1.229 0.61,1.92 1.694,3.365 3.247,4.339 1.559,0.971 3.378,1.455 5.463,1.455 2.082,0 3.901,-0.484 5.46,-1.455 C 7.016,17.656 8.098,16.211 8.708,14.291 8.848,13.87 8.961,13.46 9.042,13.062 9.123,12.663 9.187,12.221 9.234,11.729 9.281,11.237 9.315,10.674 9.34,10.043 9.364,9.411 9.374,8.651 9.374,7.761 9.374,6.869 9.364,6.109 9.34,5.477 9.315,4.846 9.281,4.285 9.234,3.791 9.187,3.302 9.123,2.857 9.042,2.458 8.961,2.06 8.848,1.65 8.708,1.229 8.098,-0.715 7.016,-2.166 5.46,-3.125 3.901,-4.086 2.082,-4.565 0,-4.565" /></g><g
           transform="translate(468.6213,53.6688)"
           id="g48"><path
             id="path50"
             style="fill:#1d2a3a;fill-opacity:1;fill-rule:nonzero;stroke:none"
             d="M 0,0 C 0.981,0 1.768,0.268 2.353,0.809 2.935,1.345 3.228,2.072 3.228,2.985 3.228,3.874 2.935,4.587 2.353,5.126 1.768,5.664 0.981,5.935 0,5.935 h -4.214 c -0.14,0 -0.211,-0.072 -0.211,-0.212 V 0.209 C -4.425,0.069 -4.354,0 -4.214,0 Z m 3.616,-13.484 c -0.258,0 -0.432,0.118 -0.526,0.351 l -4.108,8.742 h -3.196 c -0.14,0 -0.211,-0.069 -0.211,-0.209 v -8.533 c 0,-0.233 -0.118,-0.351 -0.349,-0.351 h -4.462 c -0.236,0 -0.349,0.118 -0.349,0.351 v 23.176 c 0,0.233 0.113,0.351 0.349,0.351 H 0.28 c 1.217,0 2.323,-0.182 3.319,-0.546 C 4.592,9.487 5.448,8.978 6.163,8.322 6.876,7.668 7.427,6.881 7.813,5.969 8.199,5.057 8.391,4.061 8.391,2.985 8.391,1.438 8.017,0.093 7.267,-1.055 6.517,-2.2 5.477,-3.068 4.145,-3.651 l 4.703,-9.411 c 0.047,-0.118 0.047,-0.218 0,-0.3 -0.047,-0.081 -0.128,-0.122 -0.246,-0.122 z" /></g><g
           transform="translate(498.6073,44.9611)"
           id="g52"><path
             id="path54"
             style="fill:#1d2a3a;fill-opacity:1;fill-rule:nonzero;stroke:none"
             d="m 0,0 c 0,-0.143 0.069,-0.211 0.211,-0.211 h 2.705 c 1.192,0 2.153,0.194 2.876,0.58 0.725,0.388 1.242,1.074 1.546,2.06 0.072,0.165 0.128,0.356 0.177,0.58 0.045,0.221 0.086,0.509 0.121,0.863 0.037,0.352 0.059,0.792 0.071,1.32 0.012,0.526 0.02,1.178 0.02,1.952 0,0.775 -0.008,1.421 -0.02,1.937 -0.012,0.517 -0.034,0.949 -0.071,1.303 -0.035,0.352 -0.076,0.637 -0.121,0.861 -0.049,0.224 -0.105,0.43 -0.177,0.617 -0.304,0.986 -0.821,1.672 -1.546,2.06 -0.723,0.386 -1.684,0.58 -2.876,0.58 H 0.211 C 0.069,14.502 0,14.431 0,14.291 Z m -5.163,18.716 c 0,0.233 0.116,0.349 0.352,0.349 h 8.882 c 2.109,0 3.865,-0.443 5.269,-1.332 1.403,-0.888 2.399,-2.233 2.986,-4.032 0.091,-0.327 0.18,-0.671 0.261,-1.033 0.081,-0.364 0.155,-0.789 0.212,-1.281 0.056,-0.489 0.098,-1.074 0.122,-1.752 0.025,-0.679 0.037,-1.507 0.037,-2.491 0,-0.981 -0.012,-1.812 -0.037,-2.488 C 12.897,3.978 12.855,3.393 12.799,2.903 12.742,2.412 12.668,1.984 12.587,1.623 12.506,1.261 12.417,0.917 12.326,0.588 11.739,-1.212 10.743,-2.557 9.34,-3.444 7.936,-4.332 6.18,-4.777 4.071,-4.777 h -8.882 c -0.236,0 -0.352,0.116 -0.352,0.352 z" /></g><g
           transform="translate(517.6744,63.7112)"
           id="g56"><path
             id="path58"
             style="fill:#1d2a3a;fill-opacity:1;fill-rule:nonzero;stroke:none"
             d="m 0,0 c 0,0.234 0.116,0.352 0.352,0.352 h 15.311 c 0.231,0 0.349,-0.118 0.349,-0.352 v -3.756 c 0,-0.236 -0.118,-0.352 -0.349,-0.352 H 5.374 c -0.142,0 -0.211,-0.071 -0.211,-0.211 v -4.74 c 0,-0.14 0.069,-0.212 0.211,-0.212 h 8.565 c 0.236,0 0.354,-0.115 0.354,-0.351 v -3.722 c 0,-0.234 -0.118,-0.349 -0.354,-0.349 H 5.374 c -0.142,0 -0.211,-0.072 -0.211,-0.212 v -4.951 c 0,-0.14 0.069,-0.212 0.211,-0.212 h 10.289 c 0.231,0 0.349,-0.118 0.349,-0.349 v -3.759 c 0,-0.233 -0.118,-0.351 -0.349,-0.351 H 0.352 C 0.116,-23.527 0,-23.409 0,-23.176 Z" /></g><g
           transform="translate(539.6572,45.662)"
           id="g60"><path
             id="path62"
             style="fill:#1d2a3a;fill-opacity:1;fill-rule:nonzero;stroke:none"
             d="m 0,0 c -0.14,0.374 -0.253,0.755 -0.334,1.141 -0.081,0.388 -0.145,0.821 -0.192,1.3 -0.047,0.48 -0.081,1.043 -0.106,1.687 -0.024,0.641 -0.034,1.421 -0.034,2.333 0,0.914 0.01,1.691 0.034,2.335 0.025,0.644 0.059,1.205 0.106,1.687 0.047,0.479 0.111,0.907 0.192,1.281 0.081,0.373 0.194,0.759 0.334,1.157 0.634,1.967 1.682,3.437 3.142,4.408 1.465,0.971 3.25,1.458 5.357,1.458 2.035,0 3.761,-0.462 5.177,-1.386 1.419,-0.927 2.463,-2.233 3.144,-3.917 0.118,-0.211 0.06,-0.351 -0.174,-0.422 l -3.828,-1.719 c -0.211,-0.118 -0.374,-0.059 -0.492,0.175 -0.329,0.774 -0.791,1.416 -1.389,1.932 -0.594,0.514 -1.396,0.772 -2.401,0.772 -0.94,0 -1.707,-0.236 -2.304,-0.701 C 5.637,13.052 5.209,12.408 4.954,11.589 4.88,11.378 4.823,11.149 4.777,10.903 4.73,10.657 4.688,10.347 4.654,9.974 4.619,9.598 4.595,9.131 4.582,8.568 4.57,8.007 4.565,7.304 4.565,6.461 4.565,5.62 4.57,4.917 4.582,4.354 4.595,3.793 4.619,3.324 4.654,2.95 4.688,2.574 4.73,2.264 4.777,2.018 4.823,1.775 4.88,1.546 4.954,1.335 5.209,0.514 5.637,-0.128 6.232,-0.597 c 0.597,-0.468 1.364,-0.701 2.304,-0.701 1.005,0 1.807,0.256 2.401,0.772 0.598,0.514 1.06,1.158 1.389,1.93 0.118,0.236 0.281,0.292 0.492,0.177 l 3.828,-1.721 c 0.234,-0.069 0.292,-0.212 0.174,-0.423 -0.681,-1.684 -1.725,-2.989 -3.144,-3.914 -1.416,-0.924 -3.142,-1.386 -5.177,-1.386 -2.107,0 -3.892,0.484 -5.357,1.457 C 1.682,-3.434 0.634,-1.967 0,0" /></g><g
           transform="translate(570.6636,44.3632)"
           id="g64"><path
             id="path66"
             style="fill:#1d2a3a;fill-opacity:1;fill-rule:nonzero;stroke:none"
             d="m 0,0 c 0.981,0 1.792,0.234 2.422,0.703 0.631,0.467 1.076,1.111 1.334,1.93 0.072,0.211 0.128,0.45 0.177,0.72 0.045,0.271 0.086,0.598 0.121,0.984 0.037,0.386 0.059,0.86 0.071,1.421 0.012,0.563 0.02,1.229 0.02,2.003 0,0.772 -0.008,1.438 -0.02,2.001 -0.012,0.561 -0.034,1.035 -0.071,1.421 -0.035,0.389 -0.076,0.716 -0.121,0.984 -0.049,0.27 -0.105,0.509 -0.177,0.72 C 3.498,13.706 3.053,14.35 2.422,14.819 1.792,15.286 0.981,15.52 0,15.52 c -0.983,0 -1.792,-0.234 -2.424,-0.701 -0.632,-0.469 -1.077,-1.113 -1.333,-1.932 -0.073,-0.211 -0.13,-0.45 -0.176,-0.72 C -3.98,11.899 -4.022,11.572 -4.056,11.183 -4.091,10.797 -4.115,10.323 -4.128,9.762 -4.14,9.199 -4.145,8.533 -4.145,7.761 -4.145,6.987 -4.14,6.321 -4.128,5.758 -4.115,5.197 -4.091,4.723 -4.056,4.337 -4.022,3.951 -3.98,3.624 -3.933,3.353 -3.887,3.083 -3.83,2.844 -3.757,2.633 -3.501,1.814 -3.056,1.17 -2.424,0.703 -1.792,0.234 -0.983,0 0,0 m 0,-4.565 c -2.085,0 -3.904,0.479 -5.463,1.44 -1.553,0.959 -2.638,2.41 -3.247,4.354 -0.14,0.421 -0.254,0.831 -0.335,1.229 -0.081,0.399 -0.145,0.844 -0.191,1.333 -0.047,0.494 -0.081,1.055 -0.106,1.686 -0.025,0.632 -0.034,1.392 -0.034,2.284 0,0.89 0.009,1.65 0.034,2.282 0.025,0.631 0.059,1.194 0.106,1.686 0.046,0.492 0.11,0.934 0.191,1.333 0.081,0.398 0.195,0.808 0.335,1.229 0.609,1.92 1.694,3.365 3.247,4.339 1.559,0.971 3.378,1.455 5.463,1.455 2.082,0 3.901,-0.484 5.46,-1.455 C 7.016,17.656 8.098,16.211 8.708,14.291 8.848,13.87 8.961,13.46 9.042,13.062 9.123,12.663 9.187,12.221 9.234,11.729 9.281,11.237 9.315,10.674 9.339,10.043 9.364,9.411 9.374,8.651 9.374,7.761 9.374,6.869 9.364,6.109 9.339,5.477 9.315,4.846 9.281,4.285 9.234,3.791 9.187,3.302 9.123,2.857 9.042,2.458 8.961,2.06 8.848,1.65 8.708,1.229 8.098,-0.715 7.016,-2.166 5.46,-3.125 3.901,-4.086 2.082,-4.565 0,-4.565" /></g><g
           transform="translate(595.6655,53.6688)"
           id="g68"><path
             id="path70"
             style="fill:#1d2a3a;fill-opacity:1;fill-rule:nonzero;stroke:none"
             d="M 0,0 C 0.981,0 1.768,0.268 2.353,0.809 2.935,1.345 3.228,2.072 3.228,2.985 3.228,3.874 2.935,4.587 2.353,5.126 1.768,5.664 0.981,5.935 0,5.935 h -4.214 c -0.14,0 -0.211,-0.072 -0.211,-0.212 V 0.209 C -4.425,0.069 -4.354,0 -4.214,0 Z m 3.616,-13.484 c -0.258,0 -0.432,0.118 -0.526,0.351 l -4.108,8.742 h -3.196 c -0.14,0 -0.211,-0.069 -0.211,-0.209 v -8.533 c 0,-0.233 -0.118,-0.351 -0.349,-0.351 h -4.462 c -0.236,0 -0.349,0.118 -0.349,0.351 v 23.176 c 0,0.233 0.113,0.351 0.349,0.351 H 0.28 c 1.217,0 2.323,-0.182 3.319,-0.546 C 4.592,9.487 5.448,8.978 6.163,8.322 6.876,7.668 7.427,6.881 7.813,5.969 8.199,5.057 8.391,4.061 8.391,2.985 8.391,1.438 8.017,0.093 7.267,-1.055 6.517,-2.2 5.477,-3.068 4.145,-3.651 l 4.703,-9.411 c 0.047,-0.118 0.047,-0.218 0,-0.3 -0.047,-0.081 -0.128,-0.122 -0.246,-0.122 z" /></g><g
           transform="translate(621.8943,49.1035)"
           id="g72"><path
             id="path74"
             style="fill:#1d2a3a;fill-opacity:1;fill-rule:nonzero;stroke:none"
             d="M 0,0 -2.704,8.356 H -2.81 L -5.512,0 Z m -5.374,14.608 c 0.074,0.233 0.224,0.351 0.457,0.351 h 4.425 c 0.236,0 0.386,-0.118 0.458,-0.351 L 8.042,-8.568 C 8.113,-8.804 8.032,-8.919 7.796,-8.919 H 3.23 c -0.233,0 -0.386,0.115 -0.454,0.351 l -1.372,4.18 h -8.356 l -1.335,-4.18 c -0.069,-0.236 -0.222,-0.351 -0.458,-0.351 h -4.599 c -0.231,0 -0.315,0.115 -0.244,0.351 z" /></g><g
           transform="translate(637.8379,40.1846)"
           id="g76"><path
             id="path78"
             style="fill:#1d2a3a;fill-opacity:1;fill-rule:nonzero;stroke:none"
             d="m 0,0 c -0.236,0 -0.354,0.116 -0.354,0.352 v 18.715 c 0,0.141 -0.069,0.212 -0.209,0.212 h -6.04 c -0.234,0 -0.349,0.115 -0.349,0.347 v 3.869 c 0,0.231 0.115,0.347 0.349,0.347 H 11.06 c 0.234,0 0.352,-0.116 0.352,-0.347 v -3.869 c 0,-0.232 -0.118,-0.347 -0.352,-0.347 H 5.02 c -0.14,0 -0.211,-0.071 -0.211,-0.212 V 0.352 C 4.809,0.116 4.693,0 4.457,0 Z" /></g><g
           transform="translate(654.2355,63.7112)"
           id="g80"><path
             id="path82"
             style="fill:#1d2a3a;fill-opacity:1;fill-rule:nonzero;stroke:none"
             d="M 0,0 C 0,0.234 0.116,0.352 0.352,0.352 H 4.811 C 5.045,0.352 5.163,0.234 5.163,0 v -23.176 c 0,-0.233 -0.118,-0.351 -0.352,-0.351 H 0.352 C 0.116,-23.527 0,-23.409 0,-23.176 Z" /></g><g
           transform="translate(674.8128,44.3632)"
           id="g84"><path
             id="path86"
             style="fill:#1d2a3a;fill-opacity:1;fill-rule:nonzero;stroke:none"
             d="m 0,0 c 0.981,0 1.792,0.234 2.421,0.703 0.632,0.467 1.077,1.111 1.335,1.93 0.072,0.211 0.128,0.45 0.177,0.72 0.045,0.271 0.086,0.598 0.121,0.984 0.037,0.386 0.059,0.86 0.071,1.421 0.012,0.563 0.02,1.229 0.02,2.003 0,0.772 -0.008,1.438 -0.02,2.001 -0.012,0.561 -0.034,1.035 -0.071,1.421 -0.035,0.389 -0.076,0.716 -0.121,0.984 -0.049,0.27 -0.105,0.509 -0.177,0.72 C 3.498,13.706 3.053,14.35 2.421,14.819 1.792,15.286 0.981,15.52 0,15.52 c -0.983,0 -1.792,-0.234 -2.424,-0.701 -0.632,-0.469 -1.077,-1.113 -1.333,-1.932 -0.073,-0.211 -0.13,-0.45 -0.177,-0.72 C -3.98,11.899 -4.022,11.572 -4.056,11.183 -4.091,10.797 -4.115,10.323 -4.128,9.762 -4.14,9.199 -4.145,8.533 -4.145,7.761 -4.145,6.987 -4.14,6.321 -4.128,5.758 -4.115,5.197 -4.091,4.723 -4.056,4.337 -4.022,3.951 -3.98,3.624 -3.934,3.353 -3.887,3.083 -3.83,2.844 -3.757,2.633 -3.501,1.814 -3.056,1.17 -2.424,0.703 -1.792,0.234 -0.983,0 0,0 m 0,-4.565 c -2.085,0 -3.904,0.479 -5.463,1.44 -1.553,0.959 -2.638,2.41 -3.247,4.354 -0.14,0.421 -0.254,0.831 -0.335,1.229 -0.081,0.399 -0.145,0.844 -0.191,1.333 -0.047,0.494 -0.081,1.055 -0.106,1.686 -0.025,0.632 -0.035,1.392 -0.035,2.284 0,0.89 0.01,1.65 0.035,2.282 0.025,0.631 0.059,1.194 0.106,1.686 0.046,0.492 0.11,0.934 0.191,1.333 0.081,0.398 0.195,0.808 0.335,1.229 0.609,1.92 1.694,3.365 3.247,4.339 1.559,0.971 3.378,1.455 5.463,1.455 2.082,0 3.901,-0.484 5.46,-1.455 C 7.016,17.656 8.098,16.211 8.708,14.291 8.848,13.87 8.961,13.46 9.042,13.062 9.123,12.663 9.187,12.221 9.234,11.729 9.28,11.237 9.315,10.674 9.339,10.043 9.364,9.411 9.374,8.651 9.374,7.761 9.374,6.869 9.364,6.109 9.339,5.477 9.315,4.846 9.28,4.285 9.234,3.791 9.187,3.302 9.123,2.857 9.042,2.458 8.961,2.06 8.848,1.65 8.708,1.229 8.098,-0.715 7.016,-2.166 5.46,-3.125 3.901,-4.086 2.082,-4.565 0,-4.565" /></g><g
           transform="translate(690.2282,63.7112)"
           id="g88"><path
             id="path90"
             style="fill:#1d2a3a;fill-opacity:1;fill-rule:nonzero;stroke:none"
             d="M 0,0 C 0,0.234 0.116,0.352 0.352,0.352 H 4.563 C 4.821,0.352 5.02,0.234 5.163,0 l 8.425,-15.028 h 0.177 V 0 c 0,0.234 0.115,0.352 0.349,0.352 h 3.968 c 0.236,0 0.351,-0.118 0.351,-0.352 v -23.176 c 0,-0.233 -0.115,-0.351 -0.351,-0.351 h -4.177 c -0.258,0 -0.455,0.118 -0.598,0.351 L 4.846,-8.182 H 4.669 v -14.994 c 0,-0.233 -0.116,-0.351 -0.35,-0.351 H 0.352 C 0.116,-23.527 0,-23.409 0,-23.176 Z" /></g><g
           transform="translate(323.6346,12.657)"
           id="g92"><path
             id="path94"
             style="fill:#1d2a3a;fill-opacity:1;fill-rule:nonzero;stroke:none"
             d="m 0,0 c 0,-0.143 0.069,-0.211 0.211,-0.211 h 2.705 c 1.192,0 2.153,0.194 2.876,0.58 0.725,0.388 1.242,1.074 1.546,2.06 0.072,0.165 0.128,0.356 0.177,0.58 0.045,0.221 0.086,0.509 0.121,0.863 0.037,0.352 0.059,0.792 0.071,1.32 0.012,0.526 0.02,1.178 0.02,1.952 0,0.775 -0.008,1.421 -0.02,1.937 -0.012,0.517 -0.034,0.949 -0.071,1.303 -0.035,0.352 -0.076,0.637 -0.121,0.861 -0.049,0.224 -0.105,0.43 -0.177,0.617 -0.304,0.986 -0.821,1.672 -1.546,2.06 -0.723,0.386 -1.684,0.58 -2.876,0.58 H 0.211 C 0.069,14.502 0,14.431 0,14.291 Z m -5.163,18.716 c 0,0.233 0.116,0.349 0.352,0.349 h 8.882 c 2.109,0 3.865,-0.442 5.269,-1.332 1.403,-0.888 2.399,-2.233 2.986,-4.032 0.091,-0.327 0.18,-0.671 0.261,-1.033 0.081,-0.364 0.155,-0.789 0.211,-1.281 0.057,-0.489 0.099,-1.074 0.123,-1.752 0.025,-0.679 0.037,-1.507 0.037,-2.491 0,-0.981 -0.012,-1.812 -0.037,-2.488 C 12.897,3.978 12.855,3.393 12.798,2.903 12.742,2.412 12.668,1.984 12.587,1.623 12.506,1.261 12.417,0.917 12.326,0.588 11.739,-1.212 10.743,-2.557 9.34,-3.444 7.936,-4.332 6.18,-4.777 4.071,-4.777 h -8.882 c -0.236,0 -0.352,0.116 -0.352,0.352 z" /></g><g
           transform="translate(342.7018,31.4073)"
           id="g96"><path
             id="path98"
             style="fill:#1d2a3a;fill-opacity:1;fill-rule:nonzero;stroke:none"
             d="M 0,0 C 0,0.234 0.116,0.352 0.352,0.352 H 15.66 c 0.234,0 0.352,-0.118 0.352,-0.352 v -3.756 c 0,-0.236 -0.118,-0.352 -0.352,-0.352 H 5.374 c -0.143,0 -0.211,-0.071 -0.211,-0.211 v -4.74 c 0,-0.14 0.068,-0.212 0.211,-0.212 h 8.565 c 0.236,0 0.352,-0.115 0.352,-0.351 v -3.722 c 0,-0.234 -0.116,-0.349 -0.352,-0.349 H 5.374 c -0.143,0 -0.211,-0.072 -0.211,-0.212 v -4.951 c 0,-0.14 0.068,-0.211 0.211,-0.211 H 15.66 c 0.234,0 0.352,-0.118 0.352,-0.35 v -3.759 c 0,-0.233 -0.118,-0.351 -0.352,-0.351 H 0.352 C 0.116,-23.527 0,-23.409 0,-23.176 Z" /></g><g
           transform="translate(372.6877,7.4941)"
           id="g100"><path
             id="path102"
             style="fill:#1d2a3a;fill-opacity:1;fill-rule:nonzero;stroke:none"
             d="M 0,0 C -0.937,0 -1.856,0.089 -2.756,0.263 -3.658,0.44 -4.506,0.674 -5.3,0.966 -6.097,1.259 -6.83,1.603 -7.498,2.001 -8.162,2.399 -8.732,2.82 -9.199,3.267 c -0.187,0.187 -0.2,0.384 -0.037,0.595 l 2.67,3.056 c 0.142,0.187 0.317,0.199 0.526,0.034 0.796,-0.631 1.721,-1.199 2.775,-1.703 1.055,-0.502 2.21,-0.753 3.476,-0.753 1.264,0 2.23,0.263 2.899,0.79 0.664,0.526 0.998,1.212 0.998,2.052 0,0.703 -0.258,1.276 -0.772,1.721 C 2.82,9.504 1.849,9.821 0.423,10.008 l -1.266,0.175 c -2.434,0.327 -4.302,1.072 -5.601,2.23 -1.298,1.16 -1.949,2.802 -1.949,4.934 0,1.098 0.199,2.102 0.597,3.001 0.399,0.903 0.966,1.67 1.702,2.301 0.74,0.632 1.629,1.124 2.669,1.475 1.043,0.352 2.208,0.527 3.494,0.527 1.593,0 3.09,-0.222 4.496,-0.667 1.406,-0.445 2.611,-1.054 3.617,-1.826 0.211,-0.14 0.233,-0.317 0.068,-0.526 L 6.109,18.436 C 5.971,18.246 5.804,18.212 5.617,18.33 c -0.912,0.61 -1.819,1.064 -2.719,1.369 -0.902,0.305 -1.843,0.458 -2.829,0.458 -1.05,0 -1.849,-0.246 -2.385,-0.738 -0.541,-0.492 -0.809,-1.114 -0.809,-1.861 0,-0.679 0.276,-1.241 0.824,-1.686 0.551,-0.445 1.517,-0.763 2.898,-0.947 L 1.861,14.748 C 4.344,14.421 6.215,13.676 7.481,12.518 8.745,11.36 9.374,9.691 9.374,7.515 9.374,6.439 9.175,5.436 8.779,4.511 8.381,3.587 7.791,2.793 7.006,2.124 6.22,1.458 5.244,0.937 4.074,0.563 2.903,0.189 1.546,0 0,0" /></g><g
           transform="translate(387.6471,31.4073)"
           id="g104"><path
             id="path106"
             style="fill:#1d2a3a;fill-opacity:1;fill-rule:nonzero;stroke:none"
             d="M 0,0 C 0,0.234 0.116,0.352 0.352,0.352 H 4.811 C 5.045,0.352 5.163,0.234 5.163,0 v -23.176 c 0,-0.233 -0.118,-0.351 -0.352,-0.351 H 0.352 C 0.116,-23.527 0,-23.409 0,-23.176 Z" /></g><g
           transform="translate(399.5142,13.2885)"
           id="g108"><path
             id="path110"
             style="fill:#1d2a3a;fill-opacity:1;fill-rule:nonzero;stroke:none"
             d="m 0,0 c -0.14,0.42 -0.253,0.831 -0.334,1.229 -0.081,0.398 -0.145,0.843 -0.192,1.333 -0.047,0.494 -0.081,1.054 -0.106,1.686 -0.024,0.632 -0.034,1.392 -0.034,2.284 0,0.89 0.01,1.65 0.034,2.281 0.025,0.632 0.059,1.195 0.106,1.687 0.047,0.492 0.111,0.934 0.192,1.332 0.081,0.399 0.194,0.809 0.334,1.23 0.61,1.944 1.691,3.395 3.248,4.353 1.558,0.962 3.4,1.441 5.531,1.441 1.123,0 2.141,-0.128 3.053,-0.386 0.917,-0.258 1.729,-0.615 2.444,-1.069 0.713,-0.458 1.323,-0.998 1.824,-1.618 0.504,-0.619 0.895,-1.293 1.175,-2.018 0.118,-0.234 0.074,-0.411 -0.137,-0.526 l -3.759,-1.581 c -0.256,-0.071 -0.421,-0.012 -0.492,0.174 -0.467,0.819 -1.025,1.434 -1.669,1.844 -0.642,0.411 -1.456,0.615 -2.439,0.615 -1.03,0 -1.861,-0.241 -2.493,-0.718 C 5.654,13.091 5.209,12.442 4.954,11.623 4.88,11.412 4.823,11.171 4.777,10.903 4.73,10.633 4.688,10.306 4.654,9.92 4.619,9.534 4.595,9.067 4.582,8.516 4.57,7.965 4.565,7.304 4.565,6.532 4.565,5.758 4.57,5.091 4.582,4.528 4.595,3.968 4.619,3.493 4.654,3.107 4.688,2.721 4.73,2.395 4.777,2.124 4.823,1.854 4.88,1.615 4.954,1.404 c 0.255,-0.819 0.705,-1.463 1.349,-1.93 0.644,-0.47 1.493,-0.703 2.547,-0.703 0.89,0 1.684,0.211 2.387,0.632 0.701,0.422 1.183,1.03 1.439,1.826 0.093,0.305 0.167,0.644 0.211,1.018 0.049,0.374 0.071,0.819 0.071,1.335 0,0.14 -0.071,0.209 -0.209,0.209 H 9.517 c -0.236,0 -0.35,0.118 -0.35,0.354 v 3.37 c 0,0.234 0.114,0.349 0.35,0.349 h 8.218 c 0.234,0 0.349,-0.115 0.349,-0.349 V 5.549 c 0,-1.055 -0.047,-2.051 -0.14,-2.987 -0.093,-0.935 -0.246,-1.731 -0.457,-2.387 -0.608,-1.918 -1.679,-3.396 -3.211,-4.426 -1.534,-1.027 -3.368,-1.543 -5.497,-1.543 -2.131,0 -3.973,0.479 -5.531,1.44 C 1.691,-3.395 0.61,-1.945 0,0" /></g><g
           transform="translate(423.6399,31.4073)"
           id="g112"><path
             id="path114"
             style="fill:#1d2a3a;fill-opacity:1;fill-rule:nonzero;stroke:none"
             d="M 0,0 C 0,0.234 0.116,0.352 0.352,0.352 H 4.563 C 4.821,0.352 5.02,0.234 5.163,0 l 8.425,-15.028 h 0.177 V 0 c 0,0.234 0.115,0.352 0.349,0.352 h 3.968 c 0.236,0 0.351,-0.118 0.351,-0.352 v -23.176 c 0,-0.233 -0.115,-0.351 -0.351,-0.351 h -4.177 c -0.258,0 -0.455,0.118 -0.598,0.351 L 4.846,-8.182 H 4.669 v -14.994 c 0,-0.233 -0.116,-0.351 -0.35,-0.351 H 0.352 C 0.116,-23.527 0,-23.409 0,-23.176 Z" /></g><g
           transform="translate(466.655,23.7177)"
           id="g116"><path
             id="path118"
             style="fill:#1d2a3a;fill-opacity:1;fill-rule:nonzero;stroke:none"
             d="m 0,0 c 0.865,0.656 1.446,1.187 1.738,1.598 0.293,0.408 0.44,0.836 0.44,1.281 0,0.538 -0.179,0.988 -0.528,1.352 C 1.298,4.595 0.855,4.774 0.315,4.774 -0.248,4.774 -0.698,4.6 -1.038,4.248 -1.377,3.897 -1.546,3.442 -1.546,2.879 c 0,-0.374 0.105,-0.76 0.317,-1.158 C -1.018,1.323 -0.61,0.75 0,0 m -3.407,-9.376 c 0,-0.797 0.233,-1.446 0.703,-1.947 0.467,-0.507 1.145,-0.758 2.038,-0.758 0.56,0 1.094,0.123 1.595,0.369 0.504,0.246 1.082,0.686 1.738,1.318 l -3.65,4.705 C -1.92,-6.439 -2.559,-7.1 -2.898,-7.673 -3.235,-8.246 -3.407,-8.813 -3.407,-9.376 m -4.494,-0.421 c 0,0.632 0.073,1.247 0.228,1.844 0.15,0.595 0.403,1.183 0.755,1.755 0.352,0.573 0.809,1.158 1.369,1.756 0.563,0.597 1.252,1.221 2.073,1.878 -0.868,1.101 -1.51,2.05 -1.933,2.844 -0.42,0.797 -0.631,1.628 -0.631,2.493 0,0.819 0.162,1.576 0.491,2.267 0.327,0.691 0.775,1.286 1.335,1.789 0.563,0.504 1.227,0.895 2.001,1.176 C -1.441,8.287 -0.61,8.427 0.28,8.427 1.217,8.427 2.072,8.28 2.842,7.99 3.616,7.695 4.27,7.292 4.811,6.778 5.349,6.262 5.765,5.672 6.057,5.003 6.35,4.337 6.498,3.616 6.498,2.844 6.498,2.304 6.424,1.795 6.286,1.318 6.144,0.836 5.915,0.356 5.6,-0.123 5.283,-0.602 4.868,-1.089 4.354,-1.581 3.84,-2.072 3.218,-2.599 2.493,-3.162 l 3.124,-3.965 2.319,2.667 c 0.162,0.187 0.327,0.2 0.491,0.035 l 2.422,-2.036 c 0.162,-0.142 0.175,-0.305 0.037,-0.491 l -2.81,-3.336 0.632,-0.775 c 0.211,-0.28 0.423,-0.472 0.632,-0.578 0.211,-0.105 0.454,-0.157 0.737,-0.157 h 0.526 c 0.234,0 0.352,-0.118 0.352,-0.352 v -3.336 c 0,-0.236 -0.118,-0.351 -0.352,-0.351 H 9.131 c -0.844,0 -1.535,0.128 -2.073,0.386 -0.541,0.258 -1.101,0.772 -1.684,1.546 l -0.283,0.315 c -1.008,-0.959 -1.979,-1.637 -2.913,-2.036 -0.939,-0.398 -2.003,-0.597 -3.196,-0.597 -1.101,0 -2.08,0.157 -2.933,0.474 -0.855,0.315 -1.576,0.76 -2.158,1.335 -0.588,0.573 -1.03,1.252 -1.335,2.036 -0.305,0.784 -0.457,1.645 -0.457,2.581" /></g><g
           transform="translate(494.3939,31.4073)"
           id="g120"><path
             id="path122"
             style="fill:#1d2a3a;fill-opacity:1;fill-rule:nonzero;stroke:none"
             d="M 0,0 C 0,0.234 0.116,0.352 0.352,0.352 H 15.66 c 0.234,0 0.352,-0.118 0.352,-0.352 v -3.756 c 0,-0.236 -0.118,-0.352 -0.352,-0.352 H 5.374 c -0.143,0 -0.211,-0.071 -0.211,-0.211 V -9.34 c 0,-0.14 0.068,-0.211 0.211,-0.211 h 8.565 c 0.236,0 0.352,-0.118 0.352,-0.351 v -3.723 c 0,-0.233 -0.116,-0.351 -0.352,-0.351 H 5.374 c -0.143,0 -0.211,-0.069 -0.211,-0.212 v -8.988 c 0,-0.233 -0.118,-0.351 -0.352,-0.351 H 0.352 C 0.116,-23.527 0,-23.409 0,-23.176 Z" /></g><g
           transform="translate(516.0587,31.4073)"
           id="g124"><path
             id="path126"
             style="fill:#1d2a3a;fill-opacity:1;fill-rule:nonzero;stroke:none"
             d="M 0,0 C 0,0.234 0.116,0.352 0.352,0.352 H 4.814 C 5.045,0.352 5.163,0.234 5.163,0 v -23.176 c 0,-0.233 -0.118,-0.351 -0.349,-0.351 H 0.352 C 0.116,-23.527 0,-23.409 0,-23.176 Z" /></g><g
           transform="translate(533.1607,7.8808)"
           id="g128"><path
             id="path130"
             style="fill:#1d2a3a;fill-opacity:1;fill-rule:nonzero;stroke:none"
             d="m 0,0 c -0.236,0 -0.354,0.116 -0.354,0.352 v 18.715 c 0,0.141 -0.069,0.212 -0.209,0.212 h -6.04 c -0.234,0 -0.349,0.115 -0.349,0.347 v 3.869 c 0,0.231 0.115,0.347 0.349,0.347 H 11.06 c 0.234,0 0.352,-0.116 0.352,-0.347 v -3.869 c 0,-0.232 -0.118,-0.347 -0.352,-0.347 H 5.02 c -0.14,0 -0.211,-0.071 -0.211,-0.212 V 0.352 C 4.809,0.116 4.693,0 4.457,0 Z" /></g><g
           transform="translate(546.4324,15.3927)"
           id="g132"><path
             id="path134"
             style="fill:#1d2a3a;fill-opacity:1;fill-rule:nonzero;stroke:none"
             d="m 0,0 v 3.552 c 0,0.232 0.118,0.347 0.354,0.347 h 10.111 c 0.234,0 0.35,-0.115 0.35,-0.347 V 0 c 0,-0.234 -0.116,-0.349 -0.35,-0.349 H 0.354 C 0.118,-0.349 0,-0.234 0,0" /></g><g
           transform="translate(571.8569,12.0593)"
           id="g136"><path
             id="path138"
             style="fill:#1d2a3a;fill-opacity:1;fill-rule:nonzero;stroke:none"
             d="m 0,0 c 0.981,0 1.792,0.234 2.422,0.703 0.631,0.467 1.076,1.111 1.334,1.93 0.072,0.211 0.128,0.45 0.177,0.72 0.045,0.271 0.086,0.598 0.121,0.984 0.037,0.386 0.059,0.86 0.071,1.421 0.012,0.563 0.02,1.229 0.02,2.003 0,0.772 -0.008,1.438 -0.02,2.001 -0.012,0.561 -0.034,1.035 -0.071,1.421 -0.035,0.389 -0.076,0.716 -0.121,0.984 -0.049,0.27 -0.105,0.509 -0.177,0.72 C 3.498,13.706 3.053,14.35 2.422,14.819 1.792,15.286 0.981,15.52 0,15.52 c -0.983,0 -1.792,-0.234 -2.424,-0.701 -0.632,-0.469 -1.077,-1.113 -1.333,-1.932 -0.073,-0.211 -0.13,-0.45 -0.177,-0.72 C -3.98,11.899 -4.022,11.572 -4.056,11.183 -4.091,10.797 -4.115,10.323 -4.128,9.762 -4.14,9.199 -4.145,8.533 -4.145,7.761 -4.145,6.987 -4.14,6.321 -4.128,5.758 -4.115,5.197 -4.091,4.723 -4.056,4.337 -4.022,3.951 -3.98,3.624 -3.934,3.353 -3.887,3.083 -3.83,2.844 -3.757,2.633 -3.501,1.814 -3.056,1.17 -2.424,0.703 -1.792,0.234 -0.983,0 0,0 m 0,-4.565 c -2.085,0 -3.904,0.479 -5.463,1.44 -1.553,0.959 -2.638,2.41 -3.247,4.354 -0.14,0.421 -0.254,0.831 -0.335,1.229 -0.081,0.399 -0.145,0.844 -0.191,1.333 -0.047,0.494 -0.081,1.055 -0.106,1.686 -0.025,0.632 -0.035,1.392 -0.035,2.284 0,0.89 0.01,1.65 0.035,2.282 0.025,0.631 0.059,1.194 0.106,1.686 0.046,0.492 0.11,0.934 0.191,1.333 0.081,0.398 0.195,0.808 0.335,1.229 0.609,1.92 1.694,3.365 3.247,4.339 1.559,0.971 3.378,1.455 5.463,1.455 2.082,0 3.901,-0.484 5.46,-1.455 C 7.016,17.656 8.098,16.211 8.708,14.291 8.848,13.87 8.961,13.46 9.042,13.062 9.123,12.663 9.187,12.221 9.234,11.729 9.281,11.237 9.315,10.674 9.339,10.043 9.364,9.411 9.374,8.651 9.374,7.761 9.374,6.869 9.364,6.109 9.339,5.477 9.315,4.846 9.281,4.285 9.234,3.791 9.187,3.302 9.123,2.857 9.042,2.458 8.961,2.06 8.848,1.65 8.708,1.229 8.098,-0.715 7.016,-2.166 5.46,-3.125 3.901,-4.086 2.082,-4.565 0,-4.565" /></g><g
           transform="translate(596.3307,7.4941)"
           id="g140"><path
             id="path142"
             style="fill:#1d2a3a;fill-opacity:1;fill-rule:nonzero;stroke:none"
             d="M 0,0 C -1.335,0 -2.562,0.199 -3.685,0.597 -4.811,0.996 -5.777,1.581 -6.584,2.353 -7.393,3.125 -8.024,4.086 -8.479,5.232 -8.936,6.38 -9.165,7.69 -9.165,9.165 v 14.748 c 0,0.234 0.118,0.352 0.352,0.352 h 4.459 c 0.234,0 0.352,-0.118 0.352,-0.352 V 9.025 c 0,-1.429 0.364,-2.527 1.086,-3.302 C -2.191,4.951 -1.217,4.565 0,4.565 c 1.195,0 2.154,0.386 2.881,1.158 0.725,0.775 1.087,1.873 1.087,3.302 v 14.888 c 0,0.234 0.118,0.352 0.351,0.352 h 4.46 c 0.234,0 0.351,-0.118 0.351,-0.352 V 9.165 C 9.13,7.69 8.902,6.38 8.447,5.232 7.99,4.086 7.356,3.125 6.549,2.353 5.743,1.581 4.782,0.996 3.67,0.597 2.557,0.199 1.335,0 0,0" /></g><g
           transform="translate(617.2944,7.8808)"
           id="g144"><path
             id="path146"
             style="fill:#1d2a3a;fill-opacity:1;fill-rule:nonzero;stroke:none"
             d="m 0,0 c -0.236,0 -0.354,0.116 -0.354,0.352 v 18.715 c 0,0.141 -0.069,0.212 -0.209,0.212 h -6.04 c -0.234,0 -0.349,0.115 -0.349,0.347 v 3.869 c 0,0.231 0.115,0.347 0.349,0.347 H 11.06 c 0.234,0 0.352,-0.116 0.352,-0.347 v -3.869 c 0,-0.232 -0.118,-0.347 -0.352,-0.347 H 5.02 c -0.14,0 -0.211,-0.071 -0.211,-0.212 V 0.352 C 4.809,0.116 4.693,0 4.457,0 Z" /></g><g
           transform="translate(376.2853,144.4046)"
           id="g148"><path
             id="path150"
             style="fill:#b28f69;fill-opacity:1;fill-rule:nonzero;stroke:none"
             d="M 0,0 H -43.099 V -19.591 H -4.897 V -31.672 H -43.099 V -52.023 H 0.543 v -12.08 h -56.919 v 76.184 l 56.376,0 z" /></g><g
           transform="translate(417.8623,132.6502)"
           id="g152"><path
             id="path154"
             style="fill:#b28f69;fill-opacity:1;fill-rule:nonzero;stroke:none"
             d="m 0,0 c 0.509,-1.087 1.433,-2.104 2.78,-3.046 1.348,-0.946 3.201,-1.817 5.566,-2.613 2.363,-0.799 5.365,-1.633 9.003,-2.503 4,-1.018 7.545,-2.141 10.638,-3.373 3.092,-1.236 5.654,-2.741 7.692,-4.518 2.038,-1.778 3.582,-3.845 4.637,-6.203 1.054,-2.36 1.583,-5.136 1.583,-8.327 0,-3.628 -0.666,-6.856 -1.999,-9.686 -1.33,-2.83 -3.184,-5.224 -5.558,-7.183 -2.375,-1.96 -5.227,-3.447 -8.558,-4.462 -3.334,-1.016 -6.994,-1.525 -10.984,-1.525 -5.878,0 -11.501,0.998 -16.87,2.995 -5.369,1.993 -10.34,5.062 -14.91,9.197 l 8.053,9.578 c 3.7,-3.196 7.437,-5.645 11.211,-7.349 3.771,-1.703 8.054,-2.556 12.843,-2.556 4.135,0 7.417,0.87 9.848,2.611 2.429,1.743 3.646,4.098 3.646,7.075 0,1.377 -0.236,2.611 -0.708,3.7 -0.472,1.089 -1.347,2.085 -2.618,2.992 -1.274,0.907 -3.022,1.76 -5.239,2.559 -2.22,0.796 -5.109,1.632 -8.676,2.503 -4.074,0.941 -7.692,1.996 -10.856,3.156 -3.164,1.161 -5.817,2.611 -7.963,4.354 -2.146,1.741 -3.784,3.845 -4.912,6.313 -1.129,2.466 -1.692,5.478 -1.692,9.032 0,3.337 0.647,6.368 1.943,9.089 1.295,2.719 3.078,5.06 5.342,7.019 2.269,1.959 4.995,3.464 8.181,4.516 3.187,1.052 6.665,1.578 10.439,1.578 5.585,0 10.61,-0.816 15.072,-2.448 4.462,-1.633 8.654,-4.01 12.57,-7.13 L 32.321,5.224 c -3.481,2.54 -6.928,4.479 -10.338,5.824 -3.412,1.342 -6.856,2.011 -10.34,2.011 -3.919,0 -6.965,-0.887 -9.14,-2.665 C 0.324,8.614 -0.765,6.456 -0.765,3.919 -0.765,2.395 -0.511,1.089 0,0" /></g><g
           transform="translate(529.5092,140.963)"
           id="g156"><path
             id="path158"
             style="fill:#b28f69;fill-opacity:1;fill-rule:nonzero;stroke:none"
             d="m 0,0 c -2.987,2.294 -6.989,3.442 -12.014,3.442 h -15.614 v -27.534 h 15.614 c 5.096,0 9.118,1.256 12.066,3.768 2.952,2.513 4.425,5.846 4.425,9.999 C 4.477,-5.738 2.984,-2.296 0,0 m 15.68,-21.373 c -1.598,-3.265 -3.781,-5.984 -6.545,-8.162 -2.763,-2.176 -6.001,-3.828 -9.708,-4.952 -3.71,-1.126 -7.675,-1.686 -11.891,-1.686 h -15.164 v -24.488 h -13.28 v 76.183 h 30.039 c 4.426,0 8.435,-0.597 12.027,-1.797 3.592,-1.194 6.638,-2.92 9.14,-5.167 2.505,-2.252 4.426,-4.937 5.77,-8.054 1.343,-3.12 2.011,-6.64 2.011,-10.556 0,-4.283 -0.799,-8.057 -2.399,-11.321" /></g><path
           id="path160"
           style="fill:#b28f69;fill-opacity:1;fill-rule:nonzero;stroke:none"
           d="m 588.406,80.3 h -13.278 v 76.184 h 13.278 z" /><g
           transform="translate(262.9279,148.0583)"
           id="g162"><path
             id="path164"
             style="fill:#1d2a3a;fill-opacity:1;fill-rule:nonzero;stroke:none"
             d="m 0,0 v -120.762 h -11.95 v 62.899 h 10e-4 v 17.261 H -11.95 V 9.369 Z m 0,-135.783 h -11.948 v 11.918 H 0 Z m -115.514,15.021 V 114.046 L -15.053,35.264 V 15.729 l -41.151,32.272 v -3.927 l 41.151,-32.271 v -52.405 h -86.81 v -17.261 h 86.81 v -62.899 z m 100.461,-15.021 h -23.613 -76.848 v 11.916 h 100.461 z m -100.461,268.899 c 9.028,-7.078 89.445,-70.139 100.461,-78.78 V 39.192 l -97.356,76.344 -3.105,2.434 z M -15.053,-55.378 h -84.325 v 12.287 h 84.325 z M 28.798,39.546 V 23.903 L -11.95,55.858 v 26.87 l -3.103,2.429 V 58.294 c -26.384,20.69 -74.148,58.147 -100.461,78.78 v 28.707 h -3.102 v -26.273 c -3.38,2.652 -10.515,8.245 -13.932,10.928 v -3.961 c 3.439,-2.699 10.524,-8.253 13.932,-10.925 v -0.91 L -262.928,21.469 V -1.564 l 144.312,113.171 v -232.369 h -97.358 V 12.44 l -18.153,-14.215 v -137.113 h 115.511 v -9.17 h 3.102 v 9.17 h 100.461 v -9.17 h 3.103 v 9.17 H 0 v -9.17 h 3.103 v 9.17 h 19.785 v 3.105 H 3.103 v 11.916 h 23.239 v 3.105 H 3.103 V -2.436 l 16.456,-12.905 v 3.929 L 16.457,-8.978 -11.95,13.295 V 32.832 L 19.559,8.12 v 3.929 L 16.457,14.483 -11.95,36.758 V 51.902 L 28.798,19.95 V -5.507 l 3.105,-2.429 v 45.053 z" /></g><path
           id="path166"
           style="fill:#b28f69;fill-opacity:1;fill-rule:nonzero;stroke:none"
           d="M 128.842,89.566 H 40.966 v 17.261 h 87.876 z" /><g
           transform="translate(144.3503,9.2046)"
           id="g168"><path
             id="path170"
             style="fill:#b28f69;fill-opacity:1;fill-rule:nonzero;stroke:none"
             d="m 0,0 h -115.511 v 137.111 l 18.155,14.214 V 18.126 l 97.356,0 z" /></g><g
           transform="translate(144.3503,283.6413)"
           id="g172"><path
             id="path174"
             style="fill:#b28f69;fill-opacity:1;fill-rule:nonzero;stroke:none"
             d="m 0,0 -144.312,-114.08 v -23.033 L 0,-23.943 Z" /></g></g></g></g></svg>